<svg xmlns="http://www.w3.org/2000/svg" xmlns:xlink="http://www.w3.org/1999/xlink" viewBox="0 0 1030.81 496.19"><defs><style>.cls-1{isolation:isolate;}.cls-2{opacity:0.5;mix-blend-mode:multiply;}.cls-3{fill:url(#linear-gradient);}.cls-4{fill:url(#linear-gradient-2);}.cls-5{fill:url(#linear-gradient-3);}.cls-6{fill:url(#linear-gradient-4);}.cls-7{fill:url(#linear-gradient-5);}.cls-8{fill:url(#linear-gradient-6);}.cls-9{fill:url(#linear-gradient-7);}.cls-10{fill:url(#linear-gradient-8);}.cls-11{fill:url(#linear-gradient-9);}.cls-12{fill:url(#linear-gradient-10);}.cls-13{fill:url(#linear-gradient-11);}.cls-14{fill:url(#linear-gradient-12);}.cls-15{fill:url(#linear-gradient-13);}.cls-16{fill:url(#linear-gradient-14);}.cls-17{fill:url(#linear-gradient-15);}.cls-18{fill:url(#linear-gradient-16);}.cls-19{fill:url(#linear-gradient-17);}.cls-20{fill:url(#linear-gradient-18);}.cls-21{fill:url(#linear-gradient-19);}</style><linearGradient id="linear-gradient" y1="345.45" x2="1003.65" y2="345.45" gradientUnits="userSpaceOnUse"><stop offset="0" stop-color="#bfbfc1"/><stop offset="1" stop-color="#272425"/></linearGradient><linearGradient id="linear-gradient-2" x1="3.01" y1="337.21" x2="1005.15" y2="337.21" xlink:href="#linear-gradient"/><linearGradient id="linear-gradient-3" x1="6.02" y1="328.97" x2="1006.66" y2="328.97" xlink:href="#linear-gradient"/><linearGradient id="linear-gradient-4" x1="9.03" y1="320.72" x2="1008.17" y2="320.72" xlink:href="#linear-gradient"/><linearGradient id="linear-gradient-5" x1="12.04" y1="312.46" x2="1009.68" y2="312.46" xlink:href="#linear-gradient"/><linearGradient id="linear-gradient-6" x1="15.05" y1="304.2" x2="1011.19" y2="304.2" xlink:href="#linear-gradient"/><linearGradient id="linear-gradient-7" x1="18.07" y1="295.94" x2="1012.7" y2="295.94" xlink:href="#linear-gradient"/><linearGradient id="linear-gradient-8" x1="21.08" y1="287.67" x2="1014.21" y2="287.67" xlink:href="#linear-gradient"/><linearGradient id="linear-gradient-9" x1="24.09" y1="279.39" x2="1015.72" y2="279.39" xlink:href="#linear-gradient"/><linearGradient id="linear-gradient-10" x1="27.1" y1="271.11" x2="1017.23" y2="271.11" xlink:href="#linear-gradient"/><linearGradient id="linear-gradient-11" x1="30.11" y1="262.83" x2="1018.74" y2="262.83" xlink:href="#linear-gradient"/><linearGradient id="linear-gradient-12" x1="33.12" y1="254.54" x2="1020.24" y2="254.54" xlink:href="#linear-gradient"/><linearGradient id="linear-gradient-13" x1="36.13" y1="246.25" x2="1021.75" y2="246.25" xlink:href="#linear-gradient"/><linearGradient id="linear-gradient-14" x1="39.14" y1="237.96" x2="1023.26" y2="237.96" xlink:href="#linear-gradient"/><linearGradient id="linear-gradient-15" x1="42.15" y1="229.65" x2="1024.77" y2="229.65" xlink:href="#linear-gradient"/><linearGradient id="linear-gradient-16" x1="45.16" y1="221.35" x2="1026.28" y2="221.35" xlink:href="#linear-gradient"/><linearGradient id="linear-gradient-17" x1="48.17" y1="213.04" x2="1027.79" y2="213.04" xlink:href="#linear-gradient"/><linearGradient id="linear-gradient-18" x1="51.19" y1="204.72" x2="1029.3" y2="204.72" xlink:href="#linear-gradient"/><linearGradient id="linear-gradient-19" x1="54.2" y1="196.41" x2="1030.81" y2="196.41" xlink:href="#linear-gradient"/></defs><title>Asset 1</title><g class="cls-1"><g id="Layer_2" data-name="Layer 2"><g id="OBJECTS"><g class="cls-2"><path class="cls-3" d="M248.6,219.78C332.44,250,385.16,296.94,432.66,339.22c50.65,45.07,95.16,84.68,161.91,95,58.6,9.05,95.44-17.07,129.65-41.33,32.46-23,64.75-45.91,109.4-36.78,33.76,6.89,48.8,33.62,65.56,63.4,16.91,30.06,35.26,62.67,74.52,74.63a48,48,0,0,0,6.84,1.58,36.44,36.44,0,0,0,23.11-3.73l-.19-.77c-8.76,4.64-18.65,5.37-29.45,2.07-39-11.93-57.25-44.41-74.07-74.35s-32-56.85-66.08-63.86c-45.09-9.26-77.6,13.77-110.28,36.92-35.63,25.23-70.66,50-128.69,41-66.28-10.29-110.59-49.79-161-94.71-47.57-42.41-100.38-89.48-184.6-119.94C169.6,189.54,85.38,186.43,0,212.57l1.46,1.66C86.05,188.26,169.54,191.26,248.6,219.78Z"/><path class="cls-4" d="M251.26,209.78C335,240.51,387.6,287.76,435,330.35c50.56,45.4,95,85.3,161.65,96,58.52,9.37,95.32-16.6,129.49-40.71,32.42-22.88,64.68-45.64,109.26-36.26,33.71,7.07,48.71,33.92,65.44,63.83,16.88,30.2,35.19,62.94,74.39,75.13a48.07,48.07,0,0,0,6.83,1.61,36.2,36.2,0,0,0,23.07-3.6l-.18-.78c-8.75,4.6-18.62,5.28-29.41,1.91-38.93-12.14-57.15-44.76-73.94-74.83s-31.89-57.1-66-64.3c-45-9.5-77.49,13.38-110.14,36.39-35.58,25.08-70.57,49.75-128.52,40.42-66.19-10.65-110.42-50.44-160.73-95.69-47.49-42.71-100.2-90.13-184.3-121.07C172.38,179.08,88.28,175.53,3,201.26l1.46,1.67C89,177.36,172.32,180.81,251.26,209.78Z"/><path class="cls-5" d="M253.92,199.78C337.51,231,390,278.58,437.38,321.48c50.47,45.72,94.83,85.91,161.4,96.95,58.42,9.69,95.18-16.12,129.31-40.09C760.48,355.6,792.7,333,837.22,342.6c33.65,7.27,48.63,34.23,65.32,64.27,16.85,30.32,35.12,63.21,74.26,75.62a49.62,49.62,0,0,0,6.82,1.65,36,36,0,0,0,23-3.49l-.18-.79c-8.74,4.57-18.6,5.19-29.37,1.77-38.88-12.36-57.05-45.13-73.81-75.33S871.48,349,837.45,341.57c-45-9.75-77.39,13-110,35.87-35.54,24.93-70.5,49.44-128.36,39.8-66.09-11-110.25-51.09-160.47-96.66-47.41-43-100-90.78-184-122.21C175.18,168.63,91.19,164.63,6,190l1.46,1.68C91.85,166.47,175.1,170.35,253.92,199.78Z"/><path class="cls-6" d="M256.58,189.78C340,221.47,392.49,269.41,439.75,312.6c50.38,46.06,94.66,86.54,161.13,97.94,58.34,10,95.06-15.65,129.15-39.47,32.35-22.6,64.53-45.09,109-35.22,33.61,7.46,48.56,34.53,65.21,64.7C921,431,939.27,464,978.35,476.67a49.69,49.69,0,0,0,6.81,1.68,35.76,35.76,0,0,0,23-3.37l-.18-.79c-8.73,4.53-18.57,5.1-29.33,1.62-38.82-12.59-57-45.49-73.68-75.82s-31.75-57.59-65.74-65.17c-44.88-10-77.28,12.61-109.86,35.35-35.5,24.77-70.41,49.14-128.19,39.18C535.2,398,491.12,357.62,441,311.71c-47.33-43.33-99.86-91.43-183.7-123.34C178,158.17,94.09,153.73,9,178.64l1.46,1.68C94.75,155.57,177.89,159.9,256.58,189.78Z"/><path class="cls-7" d="M259.25,179.78c83.33,32.17,135.68,80.45,182.86,124,50.29,46.39,94.5,87.15,160.87,98.92,58.25,10.32,94.93-15.17,129-38.85,32.31-22.46,64.46-44.81,108.85-34.7,33.56,7.64,48.47,34.83,65.09,65.13,16.78,30.59,35,63.76,74,76.61a48.48,48.48,0,0,0,6.8,1.73,35.64,35.64,0,0,0,23-3.26l-.18-.79c-8.72,4.49-18.55,5-29.29,1.47-38.76-12.81-56.86-45.86-73.55-76.32S875,335.84,841,328.08c-44.82-10.26-77.18,12.22-109.72,34.81-35.46,24.63-70.34,48.84-128,38.57-65.9-11.74-109.9-52.38-159.95-98.61C396.09,259.2,343.66,210.77,260,178.37,180.74,147.71,97,142.83,12,167.32L13.5,169C97.65,144.68,180.67,149.44,259.25,179.78Z"/><path class="cls-8" d="M261.91,169.78c83.2,32.65,135.46,81.27,182.56,125.08,50.2,46.71,94.33,87.77,160.61,99.9,58.17,10.64,94.8-14.7,128.82-38.23,32.27-22.33,64.38-44.54,108.7-34.18,33.51,7.84,48.4,35.14,65,65.57,16.75,30.71,34.9,64,73.87,77.1a48.56,48.56,0,0,0,6.79,1.76,35.4,35.4,0,0,0,23-3.14l-.18-.79c-8.71,4.44-18.53,4.92-29.25,1.31-38.7-13-56.77-46.21-73.42-76.8s-31.62-58.07-65.5-66c-44.76-10.51-77.08,11.83-109.58,34.29-35.42,24.47-70.26,48.54-127.87,37.95-65.8-12.1-109.73-53-159.69-99.59-47.16-44-99.51-92.73-183.09-125.61C183.53,137.26,99.89,131.93,15.05,156l1.46,1.71C100.55,133.78,183.45,139,261.91,169.78Z"/><path class="cls-9" d="M264.57,159.78C347.64,192.91,399.81,241.87,446.83,286,497,333,541,374.37,607.18,386.86c58.08,11,94.68-14.22,128.65-37.6C768.07,327.07,800.15,305,844.4,315.6c33.46,8,48.31,35.44,64.87,66,16.7,30.84,34.82,64.3,73.73,77.6a50.14,50.14,0,0,0,6.78,1.8,35.23,35.23,0,0,0,22.92-3l-.18-.79c-8.7,4.4-18.5,4.83-29.21,1.16-38.64-13.25-56.67-46.57-73.29-77.29s-31.55-58.34-65.39-66.47c-44.68-10.75-77,11.44-109.44,33.76-35.38,24.32-70.17,48.25-127.7,37.34C541.78,373.22,497.94,332,448.06,285.12,401,240.86,348.72,191.74,265.27,158.37c-79-31.57-162.48-37.34-247.2-13.67l1.44,1.72C103.45,122.89,186.23,128.53,264.57,159.78Z"/><path class="cls-10" d="M267.23,149.78c82.95,33.61,135,82.91,182,127.34,50,47.37,94,89,160.09,101.85,58,11.29,94.55-13.74,128.49-37C770,319.94,802,298,846.2,308.86c33.41,8.2,48.23,35.73,64.75,66.42,16.67,31,34.75,64.57,73.6,78.09a48.86,48.86,0,0,0,6.77,1.84,35,35,0,0,0,22.89-2.91l-.18-.79c-8.69,4.36-18.48,4.74-29.17,1-38.58-13.47-56.57-46.94-73.16-77.79s-31.49-58.57-65.27-66.9c-44.62-11-76.88,11.06-109.3,33.24C701.79,365.24,667,389,609.59,377.79,544,365,500.21,323.46,450.42,276.25c-47-44.57-99.17-94-182.49-127.88-78.85-32-162.24-38.25-246.85-15l1.44,1.72C106.35,112,189,118.08,267.23,149.78Z"/><path class="cls-11" d="M269.89,139.77c82.82,34.1,134.81,83.74,181.66,128.48,49.95,47.69,93.85,89.61,159.83,102.83,57.92,11.61,94.42-13.27,128.32-36.36C771.87,312.81,803.87,291,848,302.11c33.37,8.38,48.15,36,64.64,66.85,16.64,31.11,34.68,64.85,73.47,78.59a49,49,0,0,0,6.76,1.88,34.81,34.81,0,0,0,22.86-2.8l-.18-.79c-8.68,4.32-18.46,4.65-29.13.85-38.52-13.68-56.48-47.29-73-78.27S882,309.6,848.23,301.08c-44.56-11.25-76.78,10.67-109.16,32.71-35.3,24-70,47.65-127.38,36.1-65.51-13.18-109.21-55-158.91-102.51-46.92-44.87-99-94.68-182.19-129-78.73-32.49-162-39.15-246.5-16.29l1.44,1.73C109.25,101.09,191.8,107.63,269.89,139.77Z"/><path class="cls-12" d="M272.56,129.77c82.69,34.58,134.58,84.56,181.35,129.61,49.86,48,93.68,90.23,159.57,103.81,57.83,11.92,94.3-12.79,128.16-35.74,32.13-21.77,64.09-43.44,108.15-32.09,33.31,8.58,48.07,36.34,64.52,67.29,16.6,31.23,34.61,65.11,73.34,79.08a49.12,49.12,0,0,0,6.75,1.91,34.58,34.58,0,0,0,22.83-2.68l-.18-.8c-8.67,4.29-18.43,4.56-29.09.71-38.47-13.91-56.38-47.66-72.9-78.77S883.7,303,850,294.33c-44.49-11.5-76.67,10.29-109,32.19-35.26,23.87-69.93,47.34-127.21,35.48-65.42-13.54-109-55.62-158.65-103.48-46.84-45.18-98.82-95.33-181.89-130.15C194.65,95.43,111.5,88.32,27.1,110.76l1.44,1.75C112.15,90.2,194.58,97.17,272.56,129.77Z"/><path class="cls-13" d="M275.22,119.77c82.56,35.06,134.37,85.39,181,130.74C506,298.86,549.79,341.35,615.58,355.3c57.75,12.24,94.17-12.32,128-35.12,32.09-21.64,64-43.16,108-31.57,33.26,8.76,48,36.64,64.4,67.72,16.57,31.36,34.54,65.39,73.21,79.57a49.37,49.37,0,0,0,6.74,2,34.42,34.42,0,0,0,22.8-2.57l-.18-.8c-8.66,4.25-18.41,4.47-29,.56-38.41-14.13-56.29-48-72.77-79.26s-31.29-59.31-64.92-68.21c-44.42-11.74-76.57,9.9-108.88,31.66-35.22,23.72-69.86,47.05-127.05,34.87C550.57,340.21,507,297.84,457.5,249.65c-46.76-45.49-98.65-96-181.59-131.28C197.43,85,114.4,77.42,30.11,99.45l1.44,1.76C115.05,79.3,197.36,86.72,275.22,119.77Z"/><path class="cls-14" d="M277.88,109.77C360.31,145.31,412,196,458.63,241.64c49.69,48.67,93.36,91.46,159,105.77,57.66,12.56,94.05-11.84,127.83-34.5,32-21.5,63.94-42.89,107.87-31.05,33.21,8.95,47.91,36.95,64.29,68.15,16.54,31.5,34.47,65.66,73.08,80.07a47.7,47.7,0,0,0,6.73,2,34.16,34.16,0,0,0,22.76-2.45l-.17-.8c-8.65,4.21-18.39,4.38-29,.41-38.35-14.35-56.19-48.39-72.64-79.75s-31.23-59.56-64.81-68.65c-44.35-12-76.46,9.52-108.74,31.14C709.7,335.53,675.1,358.71,618,346.22,552.77,332,509.3,289.3,459.86,240.79c-46.67-45.8-98.48-96.63-181.28-132.41C200.21,74.52,117.3,66.52,33.12,88.14l1.43,1.77C118,68.41,200.15,76.27,277.88,109.77Z"/><path class="cls-15" d="M280.54,99.77c82.31,36,133.93,87,180.46,133,49.59,49,93.18,92.07,158.78,106.75,57.58,12.88,93.92-11.37,127.66-33.88,32-21.36,63.88-42.61,107.74-30.53,33.16,9.13,47.83,37.25,64.17,68.59,16.5,31.62,34.4,65.92,72.95,80.56a49.66,49.66,0,0,0,6.72,2,34,34,0,0,0,22.73-2.34l-.17-.8c-8.64,4.17-18.36,4.29-29,.25-38.29-14.57-56.09-48.74-72.51-80.24s-31.16-59.81-64.69-69.08c-44.29-12.24-76.36,9.13-108.6,30.61-35.14,23.42-69.7,46.45-126.72,33.64C555,323.7,511.57,280.76,462.22,231.92c-46.59-46.11-98.3-97.28-181-133.54C203,64.06,120.2,55.62,36.13,76.83l1.43,1.77C120.85,57.51,202.93,65.81,280.54,99.77Z"/><path class="cls-16" d="M283.2,89.77c82.18,36.5,133.72,87.85,180.16,134.12,49.51,49.34,93,92.7,158.52,107.74,57.49,13.2,93.79-10.89,127.5-33.26,32-21.22,63.8-42.34,107.59-30,33.12,9.32,47.75,37.56,64.07,69,16.46,31.76,34.32,66.2,72.81,81.05a48.33,48.33,0,0,0,6.7,2.07,33.87,33.87,0,0,0,22.71-2.22l-.17-.8c-8.63,4.13-18.34,4.2-28.93.1-38.23-14.79-56-49.1-72.37-80.73s-31.1-60.06-64.58-69.51C813,254.84,781,276.07,748.75,297.42c-35.1,23.26-69.62,46.14-126.55,33-65-15-108.35-58.22-157.62-107.38-46.51-46.42-98.13-97.94-180.68-134.68C205.78,53.6,123.1,44.71,39.14,65.51l1.43,1.79C123.75,46.62,205.71,55.36,283.2,89.77Z"/><path class="cls-17" d="M285.86,79.77c82.06,37,133.5,88.67,179.86,135.25,49.42,49.66,92.86,93.31,158.26,108.72,57.41,13.52,93.67-10.42,127.33-32.64C783.26,270,815,249,858.77,261.61c33.07,9.5,47.67,37.86,64,69.45C939.15,363,957,397.53,995.4,412.61a49.93,49.93,0,0,0,6.69,2.11,33.72,33.72,0,0,0,22.68-2.11l-.17-.8c-8.62,4.09-18.32,4.11-28.89-.05-38.17-15-55.9-49.47-72.24-81.23s-31-60.29-64.47-69.94c-44.15-12.75-76.15,8.35-108.32,29.55-35,23.12-69.53,45.85-126.38,32.41-64.94-15.35-108.18-58.87-157.36-108.36-46.43-46.72-98-98.58-180.38-135.81C208.56,43.14,126,33.81,42.15,54.2L43.58,56C126.65,35.72,208.49,44.9,285.86,79.77Z"/><path class="cls-18" d="M288.53,69.77c81.92,37.46,133.27,89.49,179.55,136.38,49.33,50,92.7,93.93,158,109.69,57.32,13.84,93.54-9.93,127.17-32,31.91-20.95,63.65-41.79,107.32-29,33,9.69,47.59,38.15,63.83,69.87,16.39,32,34.18,66.75,72.55,82.05a49.08,49.08,0,0,0,6.68,2.14,33.5,33.5,0,0,0,22.65-2l-.17-.8c-8.61,4.05-18.29,4-28.85-.2-38.11-15.24-55.81-49.83-72.11-81.72s-31-60.54-64.35-70.38c-44.09-13-76,8-108.18,29-35,23-69.46,45.54-126.22,31.79-64.85-15.72-108-59.52-157.1-109.34-46.35-47-97.78-99.23-180.08-136.94C211.34,32.69,128.91,22.91,45.16,42.89l1.43,1.81C129.55,24.82,211.28,34.45,288.53,69.77Z"/><path class="cls-19" d="M291.19,59.77C373,97.71,424.25,150.08,470.44,197.28,519.69,247.6,563,291.82,628.18,308c57.24,14.16,93.41-9.46,127-31.39,31.88-20.81,63.58-41.51,107.18-28.44,33,9.87,47.51,38.46,63.72,70.31,16.36,32.14,34.1,67,72.42,82.53a48.92,48.92,0,0,0,6.67,2.19c8.14,2,15.71,1.35,22.62-1.88l-.17-.81c-8.6,4-18.27,3.93-28.81-.35-38.06-15.45-55.71-50.19-72-82.2s-30.9-60.8-64.23-70.82c-44-13.24-76,7.58-108,28.5-35,22.81-69.38,45.25-126.06,31.18-64.75-16.08-107.84-60.17-156.84-110.31C425.4,149.12,374.05,96.58,291.88,58.38,214.13,22.23,131.81,12,48.17,31.58L49.6,33.4C132.45,13.93,214.06,24,291.19,59.77Z"/><path class="cls-20" d="M293.85,49.77c81.67,38.42,132.84,91.14,179,138.64,49.16,50.65,92.37,95.16,157.48,111.65,57.15,14.48,93.29-9,126.84-30.77,31.83-20.67,63.51-41.24,107-27.92,32.91,10.06,47.43,38.76,63.6,70.74,16.33,32.28,34,67.29,72.29,83a49.05,49.05,0,0,0,6.66,2.22c8.13,2,15.69,1.44,22.59-1.76l-.17-.81c-8.59,4-18.25,3.84-28.77-.5-38-15.67-55.61-50.55-71.85-82.7s-30.84-61-64.12-71.25c-44-13.49-75.84,7.19-107.9,28-34.93,22.66-69.3,44.94-125.89,30.55C566,282.44,522.94,238.06,474,187.59,427.84,139.94,376.58,87.06,294.54,48.38,216.91,11.77,134.71,1.11,51.19,20.27l1.41,1.82C135.35,3,216.84,13.54,293.85,49.77Z"/><path class="cls-21" d="M296.51,39.77c81.54,38.9,132.62,92,178.65,139.77,49.08,51,92.21,95.77,157.22,112.63,57.07,14.8,93.16-8.51,126.68-30.15,31.79-20.53,63.43-41,106.9-27.4,32.86,10.24,47.34,39.06,63.48,71.17,16.29,32.41,34,67.56,72.16,83.53a49.65,49.65,0,0,0,6.65,2.25c8.11,2.09,15.66,1.53,22.56-1.63l-.17-.82c-8.58,3.93-18.22,3.75-28.73-.65-37.94-15.9-55.52-50.91-71.72-83.19s-30.77-61.28-64-71.69c-43.89-13.74-75.74,6.8-107.76,27.45-34.9,22.51-69.22,44.65-125.73,29.94-64.56-16.79-107.49-61.45-156.32-112.25-46.1-48-97.27-101.18-179.17-140.35C219.69,1.31,137.61-9.79,54.2,9l1.41,1.84C138.25-7.86,219.62,3.08,296.51,39.77Z"/></g></g></g></g></svg>