<svg xmlns="http://www.w3.org/2000/svg" xmlns:xlink="http://www.w3.org/1999/xlink" viewBox="0 0 429.43 211.98"><defs><style>.cls-1{isolation:isolate;}.cls-2{fill:url(#linear-gradient);}.cls-3{mix-blend-mode:multiply;fill:url(#linear-gradient-2);}</style><linearGradient id="linear-gradient" x1="429.43" y1="105.99" x2="18.58" y2="105.99" gradientUnits="userSpaceOnUse"><stop offset="0" stop-color="#1a00aa" stop-opacity="0"/><stop offset="0.46" stop-color="#05007f"/></linearGradient><linearGradient id="linear-gradient-2" x1="223.49" y1="5.01" x2="169.33" y2="83.13" xlink:href="#linear-gradient"/></defs><title>Asset 2</title><g class="cls-1"><g id="Layer_2" data-name="Layer 2"><g id="OBJECTS"><path class="cls-2" d="M225.63,63.54c12.83,9.79,16.43,29.16,22.15,43.78,8.33,21.31,15.51,43.83,31,61.29,15.15,17.12,32.15,26.77,53.84,34,10.41,3.47,43.38,11.57,96.86,8.8V0H0C18.71,15.84,58.66,40.24,129,42.55,159.48,43.56,199.94,43.93,225.63,63.54Z"/><path class="cls-3" d="M283.25,173.42c-.38-1.35-14.42-50.71-14.41-95.74,0-45.65-27.18-74.81-97.43-63.36S82.62,32.89,35.15,22.05C57.31,32.35,88,41.21,129,42.55c30.53,1,71,1.38,96.68,21,12.83,9.79,16.43,29.16,22.15,43.78,8.33,21.31,15.51,43.83,31,61.29C280.22,170.29,281.73,171.88,283.25,173.42Z"/></g></g></g></svg>