<svg xmlns="http://www.w3.org/2000/svg" viewBox="0 0 162.61 162.61"><defs><style>.cls-1{opacity:0.89;}.cls-10,.cls-11,.cls-12,.cls-13,.cls-2,.cls-3,.cls-4,.cls-5,.cls-6,.cls-7,.cls-8,.cls-9{fill:none;stroke:#2727c4;stroke-linecap:round;stroke-linejoin:round;}.cls-2{stroke-width:0.81px;stroke-dasharray:0 4.34;}.cls-3{stroke-width:0.95px;stroke-dasharray:0 4.21;}.cls-4{stroke-width:1.09px;stroke-dasharray:0 4.1;}.cls-5{stroke-width:1.22px;stroke-dasharray:0 4.01;}.cls-6{stroke-width:1.36px;stroke-dasharray:0 3.87;}.cls-7{stroke-width:1.5px;stroke-dasharray:0 3.75;}.cls-8{stroke-width:1.63px;stroke-dasharray:0 3.66;}.cls-9{stroke-width:1.77px;stroke-dasharray:0 3.55;}.cls-10{stroke-width:1.91px;stroke-dasharray:0 3.41;}.cls-11{stroke-width:2.04px;stroke-dasharray:0 3.3;}.cls-12{stroke-width:2.18px;stroke-dasharray:0 3.2;}.cls-13{stroke-width:2.32px;stroke-dasharray:0 3.05;}</style></defs><title>Asset 1</title><g id="Layer_2" data-name="Layer 2"><g id="BACKGROUND"><g class="cls-1"><circle class="cls-2" cx="81.3" cy="81.3" r="80.9" transform="translate(-33.68 81.3) rotate(-45)"/><circle class="cls-3" cx="81.3" cy="81.3" r="75" transform="translate(-33.68 81.3) rotate(-45)"/><circle class="cls-4" cx="81.3" cy="81.3" r="69.1" transform="translate(-33.68 81.3) rotate(-45)"/><circle class="cls-5" cx="81.3" cy="81.3" r="63.2" transform="translate(-33.68 81.3) rotate(-45)"/><circle class="cls-6" cx="81.3" cy="81.3" r="57.3" transform="translate(-33.68 81.3) rotate(-45)"/><circle class="cls-7" cx="81.3" cy="81.3" r="51.4" transform="translate(-33.68 81.3) rotate(-45)"/><circle class="cls-8" cx="81.3" cy="81.3" r="45.5" transform="translate(-33.68 81.3) rotate(-45)"/><circle class="cls-9" cx="81.3" cy="81.3" r="39.6" transform="translate(-11.97 148.53) rotate(-80.78)"/><circle class="cls-10" cx="81.3" cy="81.3" r="33.71" transform="translate(-7.62 8.41) rotate(-5.65)"/><circle class="cls-11" cx="81.3" cy="81.3" r="27.81" transform="translate(-11.97 148.53) rotate(-80.78)"/><circle class="cls-12" cx="81.3" cy="81.3" r="21.91"/><circle class="cls-13" cx="81.3" cy="81.3" r="16.01" transform="translate(-11.97 148.53) rotate(-80.78)"/></g></g></g></svg>