<svg xmlns="http://www.w3.org/2000/svg" viewBox="0 0 184.97 184.97"><defs><style>.cls-1{opacity:0.79;}.cls-10,.cls-11,.cls-12,.cls-13,.cls-2,.cls-3,.cls-4,.cls-5,.cls-6,.cls-7,.cls-8,.cls-9{fill:none;stroke:#2727c4;stroke-miterlimit:10;}.cls-2{stroke-width:0.5px;}.cls-3{stroke-width:0.73px;}.cls-4{stroke-width:0.95px;}.cls-5{stroke-width:1.18px;}.cls-6{stroke-width:1.41px;}.cls-7{stroke-width:1.64px;}.cls-8{stroke-width:1.86px;}.cls-9{stroke-width:2.09px;}.cls-10{stroke-width:2.32px;}.cls-11{stroke-width:2.55px;}.cls-12{stroke-width:2.77px;}.cls-13{stroke-width:3px;}</style></defs><title>Asset 3</title><g id="Layer_2" data-name="Layer 2"><g id="BACKGROUND"><g class="cls-1"><circle class="cls-2" cx="92.48" cy="92.48" r="92.23" transform="translate(-38.31 92.48) rotate(-45)"/><circle class="cls-3" cx="92.48" cy="92.48" r="85.73" transform="translate(-38.31 92.48) rotate(-45)"/><circle class="cls-4" cx="92.48" cy="92.48" r="79.23" transform="translate(-38.31 92.48) rotate(-45)"/><circle class="cls-5" cx="92.48" cy="92.48" r="72.74" transform="translate(-38.31 92.48) rotate(-45)"/><circle class="cls-6" cx="92.48" cy="92.48" r="66.24" transform="translate(-38.31 92.48) rotate(-45)"/><circle class="cls-7" cx="92.48" cy="92.48" r="59.74" transform="translate(-17.02 20.96) rotate(-11.85)"/><circle class="cls-8" cx="92.48" cy="92.48" r="53.24" transform="matrix(0.98, -0.19, 0.19, 0.98, -15.59, 18.82)"/><circle class="cls-9" cx="92.48" cy="92.48" r="46.74" transform="translate(-13.83 16.3) rotate(-9.38)"/><circle class="cls-10" cx="92.48" cy="92.48" r="40.24" transform="matrix(0.99, -0.13, 0.13, 0.99, -11.61, 13.29)"/><circle class="cls-11" cx="92.48" cy="92.48" r="33.74" transform="translate(-8.75 9.67) rotate(-5.72)"/><circle class="cls-12" cx="92.48" cy="92.48" r="27.24" transform="translate(-5 5.29) rotate(-3.19)"/><circle class="cls-13" cx="92.48" cy="92.48" r="20.74"/></g></g></g></svg>