<svg xmlns="http://www.w3.org/2000/svg" xmlns:xlink="http://www.w3.org/1999/xlink" viewBox="0 0 681.13 332.49"><defs><style>.cls-1,.cls-4{fill:none;}.cls-2{opacity:0.81;}.cls-3{clip-path:url(#clip-path);}.cls-4{stroke:#2727c4;stroke-miterlimit:10;stroke-width:2px;}</style><clipPath id="clip-path"><circle class="cls-1" cx="348.49" cy="167.66" r="102.98"/></clipPath></defs><title>Asset 5</title><g id="Layer_2" data-name="Layer 2"><g id="BACKGROUND"><g class="cls-2"><g class="cls-3"><line class="cls-4" x1="331.78" y1="0.71" x2="0.71" y2="331.78"/><line class="cls-4" x1="339.7" y1="0.71" x2="8.63" y2="331.78"/><line class="cls-4" x1="347.63" y1="0.71" x2="16.55" y2="331.78"/><line class="cls-4" x1="355.55" y1="0.71" x2="24.48" y2="331.78"/><line class="cls-4" x1="363.47" y1="0.71" x2="32.4" y2="331.78"/><line class="cls-4" x1="371.4" y1="0.71" x2="40.33" y2="331.78"/><line class="cls-4" x1="379.32" y1="0.71" x2="48.25" y2="331.78"/><line class="cls-4" x1="387.24" y1="0.71" x2="56.17" y2="331.78"/><line class="cls-4" x1="395.17" y1="0.71" x2="64.1" y2="331.78"/><line class="cls-4" x1="403.09" y1="0.71" x2="72.02" y2="331.78"/><line class="cls-4" x1="411.02" y1="0.71" x2="79.94" y2="331.78"/><line class="cls-4" x1="418.94" y1="0.71" x2="87.87" y2="331.78"/><line class="cls-4" x1="426.86" y1="0.71" x2="95.79" y2="331.78"/><line class="cls-4" x1="434.79" y1="0.71" x2="103.71" y2="331.78"/><line class="cls-4" x1="442.71" y1="0.71" x2="111.64" y2="331.78"/><line class="cls-4" x1="450.63" y1="0.71" x2="119.56" y2="331.78"/><line class="cls-4" x1="458.56" y1="0.71" x2="127.49" y2="331.78"/><line class="cls-4" x1="466.48" y1="0.71" x2="135.41" y2="331.78"/><line class="cls-4" x1="474.4" y1="0.71" x2="143.33" y2="331.78"/><line class="cls-4" x1="482.33" y1="0.71" x2="151.26" y2="331.78"/><line class="cls-4" x1="490.25" y1="0.71" x2="159.18" y2="331.78"/><line class="cls-4" x1="498.18" y1="0.71" x2="167.1" y2="331.78"/><line class="cls-4" x1="506.1" y1="0.71" x2="175.03" y2="331.78"/><line class="cls-4" x1="514.02" y1="0.71" x2="182.95" y2="331.78"/><line class="cls-4" x1="521.95" y1="0.71" x2="190.87" y2="331.78"/><line class="cls-4" x1="529.87" y1="0.71" x2="198.8" y2="331.78"/><line class="cls-4" x1="537.79" y1="0.71" x2="206.72" y2="331.78"/><line class="cls-4" x1="545.72" y1="0.71" x2="214.65" y2="331.78"/><line class="cls-4" x1="553.64" y1="0.71" x2="222.57" y2="331.78"/><line class="cls-4" x1="561.56" y1="0.71" x2="230.49" y2="331.78"/><line class="cls-4" x1="569.49" y1="0.71" x2="238.42" y2="331.78"/><line class="cls-4" x1="577.41" y1="0.71" x2="246.34" y2="331.78"/><line class="cls-4" x1="585.34" y1="0.71" x2="254.26" y2="331.78"/><line class="cls-4" x1="593.26" y1="0.71" x2="262.19" y2="331.78"/><line class="cls-4" x1="601.18" y1="0.71" x2="270.11" y2="331.78"/><line class="cls-4" x1="609.11" y1="0.71" x2="278.03" y2="331.78"/><line class="cls-4" x1="617.03" y1="0.71" x2="285.96" y2="331.78"/><line class="cls-4" x1="624.95" y1="0.71" x2="293.88" y2="331.78"/><line class="cls-4" x1="632.88" y1="0.71" x2="301.8" y2="331.78"/><line class="cls-4" x1="640.8" y1="0.71" x2="309.73" y2="331.78"/><line class="cls-4" x1="648.72" y1="0.71" x2="317.65" y2="331.78"/><line class="cls-4" x1="656.65" y1="0.71" x2="325.58" y2="331.78"/><line class="cls-4" x1="664.57" y1="0.71" x2="333.5" y2="331.78"/><line class="cls-4" x1="672.5" y1="0.71" x2="341.42" y2="331.78"/><line class="cls-4" x1="680.42" y1="0.71" x2="349.35" y2="331.78"/></g></g></g></g></svg>